<svg xmlns="http://www.w3.org/2000/svg" viewBox="0 0 600 600" width="600" height="600" role="img" aria-label="Arte y Cultura">
  <defs>
    <linearGradient id="g" x1="0" y1="0" x2="1" y2="1">
      <stop offset="0" stop-color="#ec4899"/>
      <stop offset="1" stop-color="#c22a72"/>
    </linearGradient>
  </defs>
  <rect width="600" height="600" fill="url(#g)"/>
  <circle cx="491.99999999999994" cy="96.0" r="70" fill="#ffffff" opacity="0.10"/>
  <circle cx="72.0" cy="528.0" r="110" fill="#ffffff" opacity="0.08"/>
  <g transform="translate(240.0,230.0)" stroke="#ffffff" stroke-width="10" fill="none" stroke-linecap="round" stroke-linejoin="round">
    <path d="M70 15 c-35 0-60 22-60 50 c0 20 15 30 30 30 c8 0 8-10 2-14 c-6-4-4-14 6-14 h20 c22 0 32-18 32-34 c0-18-13-18-30-18z"/><circle cx="45" cy="55" r="5" fill="#ffffff" stroke="none"/><circle cx="65" cy="35" r="5" fill="#ffffff" stroke="none"/><circle cx="90" cy="55" r="5" fill="#ffffff" stroke="none"/>
  </g>
</svg>